<?xml version="1.0" encoding="UTF-8" standalone="no"?>
<svg
   height="128px"
   viewBox="0 0 128 128"
   width="128px"
   version="1.1"
   id="svg155"
   sodipodi:docname="logo.svg"
   inkscape:version="1.2.1 (9c6d41e410, 2022-07-14)"
   xmlns:inkscape="http://www.inkscape.org/namespaces/inkscape"
   xmlns:sodipodi="http://sodipodi.sourceforge.net/DTD/sodipodi-0.dtd"
   xmlns:xlink="http://www.w3.org/1999/xlink"
   xmlns="http://www.w3.org/2000/svg"
   xmlns:svg="http://www.w3.org/2000/svg">
  <defs
     id="defs159" />
  <sodipodi:namedview
     id="namedview157"
     pagecolor="#ffffff"
     bordercolor="#000000"
     borderopacity="0.25"
     inkscape:showpageshadow="2"
     inkscape:pageopacity="0.0"
     inkscape:pagecheckerboard="0"
     inkscape:deskcolor="#d1d1d1"
     showgrid="false"
     inkscape:zoom="1.5294949"
     inkscape:cx="77.803461"
     inkscape:cy="33.998151"
     inkscape:window-width="1280"
     inkscape:window-height="731"
     inkscape:window-x="0"
     inkscape:window-y="0"
     inkscape:window-maximized="1"
     inkscape:current-layer="svg155">
    <inkscape:grid
       type="xygrid"
       id="grid284"
       empspacing="4" />
  </sodipodi:namedview>
  <clipPath
     id="a">
    <path
       d="m 8 28 h 112 v 16 h -112 z m 0 0"
       id="path2" />
  </clipPath>
  <clipPath
     id="b">
    <path
       d="m 16 28 h 96 c 4.417969 0 8 3.582031 8 8 v 72 c 0 4.417969 -3.582031 8 -8 8 h -96 c -4.417969 0 -8 -3.582031 -8 -8 v -72 c 0 -4.417969 3.582031 -8 8 -8 z m 0 0"
       id="path5" />
  </clipPath>
  <filter
     id="c"
     height="1"
     width="1"
     x="0"
     y="0">
    <feColorMatrix
       in="SourceGraphic"
       type="matrix"
       values="0 0 0 0 1 0 0 0 0 1 0 0 0 0 1 0 0 0 1 0"
       id="feColorMatrix8" />
  </filter>
  <mask
     id="d">
    <g
       filter="url(#c)"
       id="g13">
      <rect
         fill-opacity="0.7"
         height="128"
         width="128"
         id="rect11" />
    </g>
  </mask>
  <clipPath
     id="e">
    <path
       d="m 16 44 h 40 v 74 h -40 z m 0 0"
       id="path16" />
  </clipPath>
  <clipPath
     id="f">
    <path
       d="m 24 44 h 96 c 4.417969 0 8 3.582031 8 8 v 72 c 0 4.417969 -3.582031 8 -8 8 h -96 c -4.417969 0 -8 -3.582031 -8 -8 v -72 c 0 -4.417969 3.582031 -8 8 -8 z m 0 0"
       id="path19" />
  </clipPath>
  <clipPath
     id="g">
    <path
       d="m 16 44 h 52 v 61 h -52 z m 0 0"
       id="path22" />
  </clipPath>
  <clipPath
     id="h">
    <path
       d="m 24 44 h 96 c 4.417969 0 8 3.582031 8 8 v 72 c 0 4.417969 -3.582031 8 -8 8 h -96 c -4.417969 0 -8 -3.582031 -8 -8 v -72 c 0 -4.417969 3.582031 -8 8 -8 z m 0 0"
       id="path25" />
  </clipPath>
  <clipPath
     id="i">
    <path
       d="m 16 44 h 78 v 36 h -78 z m 0 0"
       id="path28" />
  </clipPath>
  <clipPath
     id="j">
    <path
       d="m 24 44 h 96 c 4.417969 0 8 3.582031 8 8 v 72 c 0 4.417969 -3.582031 8 -8 8 h -96 c -4.417969 0 -8 -3.582031 -8 -8 v -72 c 0 -4.417969 3.582031 -8 8 -8 z m 0 0"
       id="path31" />
  </clipPath>
  <clipPath
     id="k">
    <path
       d="m 16 44 h 65 v 48 h -65 z m 0 0"
       id="path34" />
  </clipPath>
  <clipPath
     id="l">
    <path
       d="m 24 44 h 96 c 4.417969 0 8 3.582031 8 8 v 72 c 0 4.417969 -3.582031 8 -8 8 h -96 c -4.417969 0 -8 -3.582031 -8 -8 v -72 c 0 -4.417969 3.582031 -8 8 -8 z m 0 0"
       id="path37" />
  </clipPath>
  <clipPath
     id="m">
    <rect
       height="152"
       width="192"
       id="rect40" />
  </clipPath>
  <linearGradient
     id="n"
     gradientUnits="userSpaceOnUse">
    <stop
       offset="0"
       stop-color="#9a9996"
       id="stop43" />
    <stop
       offset="0.5"
       stop-color="#ffffff"
       id="stop45" />
    <stop
       offset="1"
       stop-color="#c0bfbc"
       id="stop47" />
  </linearGradient>
  <linearGradient
     id="o"
     gradientTransform="matrix(-0.419845,0.419845,1.06066,1.06066,-134.59859,-226.65425)"
     x1="46"
     x2="46"
     xlink:href="#n"
     y1="232"
     y2="228" />
  <linearGradient
     id="p"
     gradientTransform="matrix(0.839689,-0.839689,-1.06066,-1.06066,296.5593,347.69332)"
     x1="46"
     x2="46"
     xlink:href="#n"
     y1="232"
     y2="228" />
  <linearGradient
     id="q"
     gradientTransform="matrix(-0.574524,-0.574524,-1.06066,1.06066,372.92707,-167.78741)"
     x1="46"
     x2="46"
     xlink:href="#n"
     y1="232"
     y2="228" />
  <linearGradient
     id="r"
     gradientTransform="matrix(-0.342728,-0.342728,-1.06066,1.06066,338.08329,-141.81898)"
     x1="46"
     x2="46"
     xlink:href="#n"
     y1="232"
     y2="228" />
  <linearGradient
     id="s"
     gradientTransform="matrix(1.06066,-1.06066,1.099944,1.099944,-108.33775,111.79479)"
     gradientUnits="userSpaceOnUse"
     x1="81.999992"
     x2="81.999992"
     y1="47.000011"
     y2="65.000015">
    <stop
       offset="0"
       stop-color="#1c71d8"
       id="stop54" />
    <stop
       offset="0.5"
       stop-color="#3584e4"
       id="stop56" />
    <stop
       offset="1"
       stop-color="#1a5fb4"
       id="stop58" />
  </linearGradient>
  <linearGradient
     id="t"
     gradientTransform="matrix(1.06066,-1.06066,1.099944,1.099944,-95.609824,99.06687)"
     gradientUnits="userSpaceOnUse"
     x1="81.999992"
     x2="81.999992"
     y1="47.000011"
     y2="65.000015">
    <stop
       offset="0"
       stop-color="#2ec27e"
       id="stop61" />
    <stop
       offset="0.5"
       stop-color="#33d17a"
       id="stop63" />
    <stop
       offset="1"
       stop-color="#26a269"
       id="stop65" />
  </linearGradient>
  <linearGradient
     id="u"
     gradientTransform="matrix(1.06066,-1.06066,1.099944,1.099944,-70.153979,73.611024)"
     gradientUnits="userSpaceOnUse"
     x1="81.999969"
     x2="81.999969"
     y1="47.000011"
     y2="65.000015">
    <stop
       offset="0"
       stop-color="#c01c28"
       id="stop68" />
    <stop
       offset="0.5"
       stop-color="#e01b24"
       id="stop70" />
    <stop
       offset="1"
       stop-color="#a51d2d"
       id="stop72" />
  </linearGradient>
  <linearGradient
     id="v"
     gradientTransform="matrix(1.06066,-1.06066,1.099944,1.099944,-82.881902,86.338946)"
     gradientUnits="userSpaceOnUse"
     x1="81.999969"
     x2="81.999969"
     y1="47.000011"
     y2="65.000015">
    <stop
       offset="0"
       stop-color="#f5c211"
       id="stop75" />
    <stop
       offset="0.5"
       stop-color="#f6d32d"
       id="stop77" />
    <stop
       offset="1"
       stop-color="#e5a50a"
       id="stop79" />
  </linearGradient>
  <linearGradient
     id="w"
     gradientTransform="matrix(0.606092,-0.606092,0.74639,0.74639,-415.91516,186.59643)"
     gradientUnits="userSpaceOnUse"
     x1="483.446625"
     x2="497.446625"
     y1="288.67099"
     y2="288.67099">
    <stop
       offset="0"
       stop-color="#865e3c"
       id="stop82" />
    <stop
       offset="0.5"
       stop-color="#b5835a"
       id="stop84" />
    <stop
       offset="1"
       stop-color="#865e3c"
       id="stop86" />
  </linearGradient>
  <path
     d="m 16,34 h 96 c 4.41797,0 8,3.582031 8,8 v 60 c 0,4.41797 -3.58203,8 -8,8 H 16 c -4.417969,0 -8,-3.58203 -8,-8 V 42 c 0,-4.417969 3.582031,-8 8,-8 z m 0,0"
     fill="#d5d3cf"
     id="path89" />
  <path
     d="m 16,20 h 96 c 4.41797,0 8,3.582031 8,8 v 72 c 0,4.41797 -3.58203,8 -8,8 H 16 c -4.417969,0 -8,-3.58203 -8,-8 V 28 c 0,-4.417969 3.582031,-8 8,-8 z m 0,0"
     fill="#fafafa"
     id="path91" />
  <g
     clip-path="url(#a)"
     id="g97"
     transform="translate(0,-8)">
    <g
       clip-path="url(#b)"
       id="g95">
      <path
         d="M 8,28 H 120 V 44 H 8 Z m 0,0"
         fill="#ebebeb"
         id="path93" />
    </g>
  </g>
  <path
     d="m 117,28 c 0,2.761719 -2.23828,5 -5,5 -2.76172,0 -5,-2.238281 -5,-5 0,-2.761719 2.23828,-5 5,-5 2.76172,0 5,2.238281 5,5 z m 0,0"
     fill="#d8d8d8"
     id="path99" />
  <path
     d="m 109.50391,25.5 h 0.42578 c 0.10547,0.0039 0.21484,0.05469 0.28906,0.128906 L 112,27.414062 l 1.79688,-1.785156 c 0.10937,-0.09375 0.1875,-0.125 0.28515,-0.128906 H 114.5 v 0.417969 c 0,0.117187 -0.0156,0.226562 -0.10547,0.3125 l -1.78125,1.78125 1.76953,1.773437 c 0.0781,0.07813 0.11719,0.1875 0.11719,0.296875 V 30.5 h -0.41797 c -0.10937,0 -0.21875,-0.03906 -0.29687,-0.117188 L 112,28.597656 110.21875,30.382812 C 110.14063,30.460938 110.02734,30.5 109.91797,30.5 H 109.5 v -0.417969 c 0,-0.109375 0.043,-0.21875 0.11719,-0.296875 l 1.78515,-1.773437 -1.78515,-1.78125 c -0.0859,-0.08203 -0.125,-0.195313 -0.11719,-0.3125 z m 0,0"
     fill="#444444"
     id="path101" />
  <g
     clip-path="url(#m)"
     mask="url(#d)"
     transform="translate(-8,-24)"
     id="g127">
    <g
       clip-path="url(#e)"
       id="g107">
      <g
         clip-path="url(#f)"
         id="g105">
        <path
           d="m -25.410156,49.503906 12.726562,-12.730468 67.882813,67.882812 -12.726563,12.72656 z m 0,0"
           fill="#3584e4"
           id="path103" />
      </g>
    </g>
    <g
       clip-path="url(#g)"
       id="g113">
      <g
         clip-path="url(#h)"
         id="g111">
        <path
           d="M -12.683594,36.773438 0.046875,24.046875 67.929688,91.929688 55.199219,104.65625 Z m 0,0"
           fill="#33d17a"
           id="path109" />
      </g>
    </g>
    <g
       clip-path="url(#i)"
       id="g119">
      <g
         clip-path="url(#j)"
         id="g117">
        <path
           d="M 12.773438,11.320312 25.5,-1.410156 93.382812,66.472656 80.65625,79.199219 Z m 0,0"
           fill="#e01b24"
           id="path115" />
      </g>
    </g>
    <g
       clip-path="url(#k)"
       id="g125">
      <g
         clip-path="url(#l)"
         id="g123">
        <path
           d="M 0.046875,24.046875 12.773438,11.320312 80.65625,79.199219 67.929688,91.929688 Z m 0,0"
           fill="#f6d32d"
           id="path121" />
      </g>
    </g>
  </g>
  <path
     d="M 87.609375,34.796875 79.125,43.285156 c -1.171875,1.171875 -1.171875,3.070313 0,4.242188 1.171875,1.171875 3.070312,1.171875 4.242188,0 l 8.484374,-8.484375 c 1.171876,-1.171875 1.171876,-3.074219 0,-4.246094 -1.171874,-1.171875 -3.070312,-1.171875 -4.242187,0 z m 0,0"
     fill="url(#o)"
     id="path129"
     style="fill:url(#o)" />
  <path
     d="m 76.296875,84.296875 30.406255,-30.40625 c 1.16796,-1.171875 1.16796,-3.070313 0,-4.242187 -1.17188,-1.171876 -3.07422,-1.171876 -4.2461,0 l -30.402342,30.40625 c -1.171876,1.171874 -1.171876,3.070312 0,4.242187 1.167968,1.171875 3.070312,1.171875 4.242187,0 z m 0,0"
     fill="url(#p)"
     id="path131"
     style="fill:url(#p)" />
  <path
     d="m 89.730469,33.917969 v 7.246093 l 10.609371,10.605469 h 7.24219 c 0,-0.765625 -0.29297,-1.535156 -0.8789,-2.121093 L 91.851562,34.800781 c -0.585937,-0.589843 -1.355468,-0.882812 -2.121093,-0.882812 z m 0,0"
     fill="url(#q)"
     id="path133"
     style="fill:url(#q)" />
  <path
     d="m 78.417969,82.175781 h -7.246094 c 0,0.765625 0.292969,1.535157 0.882813,2.121094 l 9.898437,9.898435 c 1.175781,1.17578 3.066406,1.17578 4.242187,0 1.175782,-1.175779 1.175782,-3.066404 0,-4.242185 z m 0,0"
     fill="url(#r)"
     id="path135"
     style="fill:url(#r)" />
  <path
     d="m 28.210938,78.640625 4.246093,-4.242187 4.242188,-4.246094 19.796875,19.800781 -8.484375,8.484375 c -2.351563,2.35156 -6.136719,2.35156 -8.484375,0 L 28.210938,87.125 c -2.347657,-2.351562 -2.347657,-6.136719 0,-8.484375 z m 0,0"
     fill="url(#s)"
     id="path137"
     style="fill:url(#s)" />
  <path
     d="M 36.699219,70.152344 49.425781,57.425781 69.226562,77.226562 56.496094,89.953125 Z m 0,0"
     fill="url(#t)"
     id="path139"
     style="fill:url(#t)" />
  <path
     d="m 66.394531,40.457031 4.246094,-4.242187 c 2.347656,-2.351563 6.132813,-2.351563 8.484375,0 l 11.3125,11.3125 c 2.351562,2.351562 2.351562,6.132812 0,8.484375 L 81.953125,64.496094 62.152344,44.699219 Z m 0,0"
     fill="url(#u)"
     id="path141"
     style="fill:url(#u)" />
  <path
     d="M 49.425781,57.425781 62.152344,44.699219 81.953125,64.496094 69.226562,77.226562 Z m 0,0"
     fill="url(#v)"
     id="path143"
     style="fill:url(#v)" />
  <path
     d="m 83.367188,91.367188 c 2.34375,-2.34375 6.140624,-2.34375 8.484374,0 L 110.23828,109.75 c 2.33985,2.34375 2.33985,6.14453 0,8.48828 -2.34375,2.34375 -6.14453,2.34375 -8.48828,0 L 83.367188,99.85156 c -2.34375,-2.34375 -2.34375,-6.140622 0,-8.484372 z m 0,0"
     fill="url(#w)"
     id="path145"
     style="fill:url(#w)" />
  <g
     fill="#865e3c"
     id="g153"
     transform="translate(0,-8)">
    <path
       d="m 96.800781,117.04297 4.242189,-4.24219 c 0.39062,-0.39062 1.02344,-0.39062 1.41406,0 0.39063,0.39063 0.39063,1.02344 0,1.41406 l -4.242186,4.2461 c -0.390625,0.38672 -1.023438,0.38672 -1.414063,0 -0.390625,-0.39063 -0.390625,-1.02735 0,-1.41797 z m 0,0"
       id="path147" />
    <path
       d="m 99.628906,119.875 4.242184,-4.24609 c 0.39063,-0.39063 1.02344,-0.39063 1.41407,0 0.39062,0.39062 0.39062,1.02343 0,1.41406 l -4.24219,4.24609 c -0.39063,0.39063 -1.02344,0.39063 -1.414064,0 -0.390625,-0.39062 -0.390625,-1.02343 0,-1.41406 z m 0,0"
       id="path149" />
    <path
       d="m 102.45703,122.70313 4.24219,-4.24219 c 0.39062,-0.39063 1.02734,-0.39063 1.41797,0 0.39062,0.38672 0.39062,1.02344 0,1.41406 l -4.2461,4.24219 c -0.39062,0.39062 -1.02343,0.39062 -1.41406,0 -0.39062,-0.39063 -0.39062,-1.02344 0,-1.41406 z m 0,0"
       id="path151" />
  </g>
</svg>
