<?xml version="1.0" encoding="UTF-8"?>
<svg width="256" height="256" style="isolation:isolate" version="1.1" viewBox="0 0 192 192" xmlns="http://www.w3.org/2000/svg" xmlns:cc="http://creativecommons.org/ns#" xmlns:rdf="http://www.w3.org/1999/02/22-rdf-syntax-ns#" xmlns:xlink="http://www.w3.org/1999/xlink">
 <defs>
  <clipPath id="clipPath5396-3">
   <rect x="-438.46" y="195.08" width="112" height="88" rx="8" ry="8" enable-background="new" fill="#deddda" style="paint-order:normal"/>
  </clipPath>
  <linearGradient id="linearGradient4128-9-3" x1="1275.7" x2="281.12" y1="760" y2="760" gradientTransform="matrix(.15158 0 0 .15158 -3.0316 14.147)" gradientUnits="userSpaceOnUse">
   <stop stop-color="#ff7800" offset="0"/>
   <stop stop-color="#c061cb" offset="1"/>
  </linearGradient>
  <linearGradient id="linearGradient176904" x1="81" x2="81" y1="47" y2="65" gradientTransform="matrix(1.5 0 0 1.5556 -66 110.89)" gradientUnits="userSpaceOnUse" xlink:href="#linearGradient51600"/>
  <linearGradient id="linearGradient51600">
   <stop stop-color="#c0bfbc" offset="0"/>
   <stop stop-color="#deddda" offset=".5"/>
   <stop stop-color="#9a9996" offset="1"/>
  </linearGradient>
  <linearGradient id="linearGradient176906" x1="92" x2="104" y1="244" y2="244" gradientTransform="matrix(.83333 0 0 .82143 5.3333 26.571)" gradientUnits="userSpaceOnUse" xlink:href="#linearGradient51600"/>
  <linearGradient id="linearGradient176908" x1="92" x2="104" y1="244" y2="244" gradientTransform="matrix(1.5 0 0 .92857 -60 15.429)" gradientUnits="userSpaceOnUse">
   <stop stop-color="#e5a50a" offset="0"/>
   <stop stop-color="#f8e45c" offset=".25"/>
   <stop stop-color="#f5c211" offset=".75"/>
   <stop stop-color="#e5a50a" offset="1"/>
  </linearGradient>
  <linearGradient id="linearGradient176910" x1="92" x2="104" y1="244" y2="244" gradientTransform="matrix(1.5 0 0 .53571 -60 126.29)" gradientUnits="userSpaceOnUse">
   <stop stop-color="#5e5c64" offset="0"/>
   <stop stop-color="#77767b" offset=".25"/>
   <stop stop-color="#4e4957" offset=".75"/>
   <stop stop-color="#3d3846" offset="1"/>
  </linearGradient>
 </defs>
 <path d="m60.56 50.708v0.28313c0 9.789 7.9356 17.725 17.725 17.725h9.0686c2.2324 0 4.0421 1.8097 4.0421 4.0421v1.6571c0 2.2324-1.8097 4.0421-4.0421 4.0421h-69.629c-9.789 0-17.725 7.9356-17.725 17.725v0.28313c0 9.789 7.9356 17.725 17.725 17.725h51.699c2.2324 0 4.0421 1.8097 4.0421 4.0421v1.0105c0 2.2324-1.8097 4.0421-4.0421 4.0421h-2.1827c-9.789 0-17.725 7.9356-17.725 17.725v0.28314c0 9.789 7.9356 17.725 17.725 17.725h90.877c9.789 0 17.725-7.9356 17.725-17.725v-0.28314c0-9.789-7.9356-17.725-17.725-17.725h-9.0201c-2.2324 0-4.0421-1.8097-4.0421-4.0421v-1.0105c0-2.2324 1.8097-4.0421 4.0421-4.0421h25.179c9.789 0 17.725-7.9356 17.725-17.725v-0.28313c-1e-5 -9.789-7.9356-17.725-17.725-17.725h-10.764c-2.6836 0-4.8592-2.1755-4.8592-4.8592v-0.02306c0-2.6836 2.1755-4.8592 4.8592-4.8592h3.6899c9.789 0 17.725-7.9356 17.725-17.725v-0.28313c-1e-5 -9.789-7.9356-17.725-17.725-17.725h-88.917c-9.789 0-17.725 7.9356-17.725 17.725z" fill="url(#linearGradient4128-9-3)" stop-color="#000000"/>
 <g transform="matrix(.42857 0 0 .42857 286.91 -38.604)" enable-background="new">
  <rect x="-438.46" y="209.08" width="112" height="76" rx="8" ry="8" enable-background="new" fill="#d5d3cf" style="paint-order:normal"/>
  <rect x="-438.46" y="195.08" width="112" height="88" rx="8" ry="8" enable-background="new" fill="#fafafa" style="paint-order:normal"/>
  <rect x="-438.46" y="195.08" width="112" height="16" rx="0" ry="0" clip-path="url(#clipPath5396-3)" enable-background="new" fill="#ebebeb" style="paint-order:markers stroke fill"/>
  <circle cx="-334.46" cy="203.08" r="5" enable-background="new" fill="#d8d8d8" stroke-width="0" style="paint-order:markers stroke fill"/>
  <path d="m-336.95 200.58h0.42776c0.10563 3e-3 0.21334 0.0536 0.28639 0.1302l1.7834 1.7838 1.7964-1.7838c0.11075-0.0959 0.18536-0.1271 0.28639-0.1302h0.41658v0.41665c0 0.1189-0.0155 0.22931-0.10413 0.31249l-1.7834 1.7838 1.7704 1.7708c0.0781 0.0781 0.117 0.18888 0.117 0.29967v0.41665h-0.41657c-0.11075 0-0.2215-0.0388-0.29922-0.11703l-1.7834-1.7838-1.7834 1.7838c-0.0781 0.0782-0.18885 0.11703-0.29922 0.11703h-0.41657v-0.41665c0-0.11079 0.0393-0.22156 0.11739-0.29967l1.7834-1.7708-1.7834-1.7838c-0.0877-0.0812-0.12707-0.19551-0.11739-0.31249z" enable-background="new" fill="#444" stroke-width=".41661"/>
 </g>
 <metadata>
  <rdf:RDF>
   <cc:Work rdf:about="">
    <cc:license rdf:resource="http://creativecommons.org/licenses/by-sa/4.0/"/>
   </cc:Work>
   <cc:License rdf:about="http://creativecommons.org/licenses/by-sa/4.0/">
    <cc:permits rdf:resource="http://creativecommons.org/ns#Reproduction"/>
    <cc:permits rdf:resource="http://creativecommons.org/ns#Distribution"/>
    <cc:requires rdf:resource="http://creativecommons.org/ns#Notice"/>
    <cc:requires rdf:resource="http://creativecommons.org/ns#Attribution"/>
    <cc:permits rdf:resource="http://creativecommons.org/ns#DerivativeWorks"/>
    <cc:requires rdf:resource="http://creativecommons.org/ns#ShareAlike"/>
   </cc:License>
  </rdf:RDF>
 </metadata>
 <g transform="matrix(.81818 0 0 .81818 72.681 -45.546)" enable-background="new">
  <path d="m127.5 207v-3l-2.285-0.77436 0.0882 3.0857z" fill="#9a9996"/>
  <rect x="63" y="190" width="18" height="16.001" fill="#9a9996"/>
  <rect x="48" y="184" width="18" height="28" rx="3" ry="3.1111" fill="url(#linearGradient176904)"/>
  <rect x="72" y="186" width="30" height="24" rx="3" ry="3" fill="#9a9996"/>
  <path d="m97.5 201c12 0 19.5-4.8e-4 27 7.4995l3-1.5c-4.0573-10.82-12-18-25.5-18h-7.5z" fill="#9a9996"/>
  <path d="m97.5 198c12 0 19.5-4.8e-4 27 7.4995l3-1.5c-4.0573-10.82-12-18-25.5-18h-7.5z" fill="#c0bfbc"/>
  <rect x="72" y="186" width="30" height="16" rx="3" ry="2.9091" fill="#c0bfbc"/>
  <g stroke-dashoffset="26.4" stroke-linecap="square">
   <g stroke-width="188.67">
    <rect x="82" y="204" width="10" height="46" rx="5" ry="5" enable-background="new" fill="url(#linearGradient176906)"/>
    <rect x="78" y="216" width="18" height="52" rx="6" ry="6" enable-background="new" fill="url(#linearGradient176908)"/>
    <rect x="78" y="242" width="18" height="30" rx="6" ry="6" enable-background="new" fill="url(#linearGradient176910)"/>
   </g>
   <rect x="78" y="261.5" width="18" height="10.5" rx="5.2498" ry="5.2498" enable-background="new" fill="#241f31" stroke-width="225"/>
  </g>
  <g stroke-dashoffset="26.4" stroke-linecap="round" stroke-width="12">
   <rect x="83" y="246" width="8" height="2" rx="1" ry="1" opacity=".4"/>
   <rect x="83" y="250" width="8" height="2" rx="1" ry="1" opacity=".4"/>
   <rect x="83" y="254" width="8" height="2" rx="1" ry="1" opacity=".4"/>
  </g>
 </g>
 <g transform="matrix(1.2495 0 0 1.2495 -369.12 -110.72)" stroke-dashoffset="26.4" stroke-linecap="round">
  <path transform="matrix(.75 0 0 .75 274.43 -66.757)" d="m65.999 225.17v12.83l-6 3-6-3v-12.82a16 16 0 0 0-10 14.82 16 16 0 0 0 16 16 16 16 0 0 0 16-16 16 16 0 0 0-10-14.83z" fill="#9a9996" stroke-width="12" style="isolation:isolate"/>
  <g stroke-width="9">
   <path d="m323.93 100.62v11.124l-4.5 2.25-4.5-2.25v-11.109a12 12 0 0 0-7.5 11.109 12 12 0 0 0 12 12 12 12 0 0 0 12-12 12 12 0 0 0-7.5-11.124z" fill="#deddda"/>
   <path d="m319.43 117.74c-3.324 0-6 2.676-6 6v28.5c0 3.324 2.676 6 6 6s6-2.676 6-6v-28.5c0-3.324-2.676-6-6-6zm0 31.5c1.2426 0 2.25 1.0074 2.25 2.25 0 1.2426-1.0074 2.25-2.25 2.25s-2.25-1.0074-2.25-2.25c0-1.2426 1.0074-2.25 2.25-2.25z" fill="#9a9996"/>
   <path d="m319.43 116.24c-3.324 0-6 2.676-6 6v28.5c0 3.324 2.676 6 6 6s6-2.676 6-6v-28.5c0-3.324-2.676-6-6-6zm0 31.5c1.2426 0 2.25 1.0074 2.25 2.25 0 1.2426-1.0074 2.25-2.25 2.25s-2.25-1.0074-2.25-2.25c0-1.2426 1.0074-2.25 2.25-2.25z" fill="#deddda"/>
   <rect x="316.43" y="122.24" width="6" height="19.5" rx="3" ry="3" enable-background="new" fill="#a7a6a4"/>
  </g>
 </g>
 <path d="m131.9 55.207-2.325 2.1716c-0.68454 0.63732-0.80256 1.7349-0.40718 2.5788l-8.893 9.0583h-0.0472c-0.38947-0.19474-0.83207-0.27736-1.2687-0.22424-0.49572 0.07082-0.956 0.30096-1.31 0.66683l-5.9602 6.0369c-0.59011 0.56651-0.82615 1.4104-0.61371 2.2011 0.21242 0.79075 0.83795 1.4045 1.6346 1.5992 0.79666 0.20064 1.6346-0.04722 2.1952-0.64323l5.9602-6.0369c0.71404-0.68454 0.89698-1.7467 0.44848-2.626l8.8989-9.0111c0.84387 0.37767 1.9238 0.22424 2.5788-0.43668l2.1362-2.3605zm-15.573 0.13572c-0.60193 0-1.1862 0.14162-1.7232 0.33046l2.8444 2.8385c0.59011 0.57831 0.59011 1.5107 0 2.0949l-1.074 1.0681c-0.5842 0.58421-1.5107 0.58421-2.1008 0l-2.8443-2.8385c-0.1888 0.537-0.33048 1.1212-0.33048 1.7231 0 2.8798 2.3428 5.2166 5.2284 5.2166 0.60782 0 1.192-0.14162 1.729-0.33046l1.7762 1.7703h0.0886l3.1276-3.1158-1.8175-1.8176c0.1888-0.54291 0.32456-1.1212 0.32456-1.7231 0-2.8798-2.3369-5.2166-5.2284-5.2166zm9.8962 11.92-3.1276 3.1217c0.018 0.04132 0.0354 0.08852 0.0472 0.13572l1.729 1.7231c-0.1888 0.537-0.33046 1.1212-0.33046 1.7231 0 2.8739 2.3428 5.2107 5.2284 5.2107 0.65501 0 1.2924-0.15342 1.8707-0.37177l-3.0332-3.0214c-0.58421-0.58422-0.58421-1.5638 0-2.1421l1.0268-1.0268c0.29508-0.28916 0.69045-0.46619 1.074-0.46619 0.38356 0 0.77892 0.17704 1.074 0.46619l2.9388 2.9329c0.1594-0.4957 0.27736-1.0327 0.27736-1.5815 0-2.8798-2.3369-5.2166-5.2284-5.2166-0.60192 0-1.1861 0.14162-1.7231 0.33047z" fill="#d8d8d8" stroke-width="1.5107"/>
</svg>
