<?xml version="1.0" encoding="UTF-8" standalone="no"?>
<!-- Created with Inkscape (http://www.inkscape.org/) -->

<svg
   width="16"
   height="16"
   viewBox="0 0 4.2333332 4.2333333"
   version="1.1"
   id="svg21066"
   sodipodi:docname="arrow-symbolic.svg"
   inkscape:version="1.2.1 (9c6d41e410, 2022-07-14, custom)"
   xmlns:inkscape="http://www.inkscape.org/namespaces/inkscape"
   xmlns:sodipodi="http://sodipodi.sourceforge.net/DTD/sodipodi-0.dtd"
   xmlns="http://www.w3.org/2000/svg"
   xmlns:svg="http://www.w3.org/2000/svg">
  <sodipodi:namedview
     id="namedview21068"
     pagecolor="#ffffff"
     bordercolor="#000000"
     borderopacity="0.25"
     inkscape:showpageshadow="2"
     inkscape:pageopacity="0.0"
     inkscape:pagecheckerboard="0"
     inkscape:deskcolor="#d1d1d1"
     inkscape:document-units="mm"
     showgrid="false"
     inkscape:zoom="13.455443"
     inkscape:cx="10.033114"
     inkscape:cy="19.694632"
     inkscape:window-width="1680"
     inkscape:window-height="985"
     inkscape:window-x="0"
     inkscape:window-y="0"
     inkscape:window-maximized="1"
     inkscape:current-layer="layer1" />
  <defs
     id="defs21063" />
  <g
     inkscape:label="Layer 1"
     inkscape:groupmode="layer"
     id="layer1">
    <path
       id="path15845"
       style="fill:#deddda;stroke-width:0.132277"
       d="m 2.1170422,1.0585217 -5.2e-4,5.2e-4 c -0.0339,0 -0.0677,0.01292 -0.0935,0.03876 -0.0517,0.05168 -0.0517,0.1354 0,0.18706 l 0.70022,0.6997 h -1.53273 c -0.0729,0 -0.13229,0.05944 -0.13229,0.1323 0,0.07285 0.0594,0.13229 0.13229,0.13229 h 1.53273 l -0.70022,0.70021 c -0.0517,0.05167 -0.0517,0.1354 0,0.18707 0.0517,0.05168 0.13539,0.05168 0.18707,0 l 0.92139,-0.92139 c 0.002,-0.0014 0.003,-0.0032 0.005,-0.0047 10e-4,-0.0015 0.003,-0.0031 0.004,-0.0047 h 5.1e-4 c 10e-4,-0.0015 0.003,-0.0031 0.004,-0.0046 l 5.1e-4,-5.2e-4 c 10e-4,-0.0014 0.002,-0.0032 0.003,-0.0047 0.003,-0.0034 0.005,-0.0067 0.007,-0.01033 2.6e-4,-4.3e-4 2.6e-4,-0.0011 5.2e-4,-0.0016 8.2e-4,-0.0014 0.002,-0.0027 0.002,-0.0041 2.8e-4,-5.1e-4 7.6e-4,-9.5e-4 10e-4,-0.0016 7.2e-4,-0.0014 10e-4,-0.0027 0.002,-0.0041 10e-4,-0.0024 0.003,-0.0047 0.004,-0.0072 5.8e-4,-0.0014 10e-4,-0.0032 0.002,-0.0047 9.3e-4,-0.0025 0.002,-0.0051 0.003,-0.0078 4.6e-4,-0.0015 9.2e-4,-0.0032 10e-4,-0.0047 6.5e-4,-0.0025 10e-4,-0.0052 0.002,-0.0078 3.3e-4,-0.0017 2.5e-4,-0.0035 5.2e-4,-0.0052 3.3e-4,-0.0022 8e-4,-0.0045 10e-4,-0.0067 2.1e-4,-0.0021 4e-4,-0.0041 5.2e-4,-0.0062 v -5.1e-4 c 1.1e-4,-0.0022 0,-0.0044 0,-0.0067 0,-0.0022 1.1e-4,-0.0045 0,-0.0067 v -5.2e-4 c -1.2e-4,-0.0021 -3.1e-4,-0.0041 -5.2e-4,-0.0062 -1.8e-4,-0.0018 -2.6e-4,-0.0035 -5.2e-4,-0.0052 -6e-5,-4.3e-4 -4.5e-4,-0.0011 -5.1e-4,-0.0016 -2.7e-4,-0.0017 -1.8e-4,-0.0034 -5.2e-4,-0.0052 -8e-5,-4.3e-4 -4.3e-4,-6e-4 -5.2e-4,-10e-4 -7.7e-4,-0.0038 -0.002,-0.0078 -0.003,-0.01137 -1.5e-4,-5.2e-4 -3.6e-4,-9.5e-4 -5.2e-4,-0.0016 -10e-4,-0.0036 -0.002,-0.0075 -0.004,-0.01085 -2.1e-4,-5.3e-4 -8.1e-4,-9.5e-4 -10e-4,-0.0015 -2.2e-4,-5.2e-4 -2.9e-4,-9.5e-4 -5.2e-4,-0.0016 -6.4e-4,-0.0015 -10e-4,-0.0026 -0.002,-0.0041 -6.7e-4,-0.0014 -0.001,-0.0028 -0.002,-0.0041 -2.7e-4,-5.1e-4 -2.4e-4,-9.5e-4 -5.2e-4,-0.0015 -7.8e-4,-0.0014 -0.002,-0.0027 -0.002,-0.0041 -2.5e-4,-4.3e-4 -7.7e-4,-0.0011 -10e-4,-0.0016 -0.002,-0.0036 -0.005,-0.0069 -0.007,-0.01033 l -0.003,-0.0047 -5.2e-4,-5.2e-4 c -10e-4,-0.0015 -0.003,-0.0033 -0.004,-0.0046 -10e-4,-0.0016 -0.003,-0.0032 -0.004,-0.0047 l -0.005,-0.0047 -0.92139,-0.92139 c -0.0258,-0.02584 -0.0597,-0.03876 -0.0935,-0.03876 z" />
  </g>
</svg>
