<svg xmlns="http://www.w3.org/2000/svg" xml:space="preserve" width="48" height="48" viewBox="0 0 12.7 12.7">
    <g style="fill:#000;opacity:.04">
        <g style="fill:#000">
            <path d="M3 0C1.34 0 0 1.34 0 3v2c0 1.66 1.34 3 3 3h10c1.66 0 3-1.34 3-3V3c0-1.66-1.34-3-3-3Zm0 2h10c.555 0 1 .445 1 1v2c0 .555-.445 1-1 1H3c-.555 0-1-.445-1-1V3c0-.555.445-1 1-1Zm5 7h7c.55 0 1 .45 1 1s-.45 1-1 1H8c-.55 0-1-.45-1-1s.45-1 1-1Zm0 0" style="fill:#000" transform="translate(1.058 1.058) scale(.26458)"/>
            <path d="M8 9c.55 0 1 .45 1 1v5c0 .55-.45 1-1 1s-1-.45-1-1v-5c0-.55.45-1 1-1Zm0 0" style="fill:#000" transform="translate(1.058 1.058) scale(.26458)"/>
        </g>
        <g style="fill:#000">
            <path d="M3 0C1.34 0 0 1.34 0 3v2c0 1.66 1.34 3 3 3h10c1.66 0 3-1.34 3-3V3c0-1.66-1.34-3-3-3Zm0 2h10c.555 0 1 .445 1 1v2c0 .555-.445 1-1 1H3c-.555 0-1-.445-1-1V3c0-.555.445-1 1-1Zm5 7h7c.55 0 1 .45 1 1s-.45 1-1 1H8c-.55 0-1-.45-1-1s.45-1 1-1Zm0 0" style="fill:#000" transform="translate(7.408 7.408) scale(.26458)"/>
            <path d="M8 9c.55 0 1 .45 1 1v5c0 .55-.45 1-1 1s-1-.45-1-1v-5c0-.55.45-1 1-1Zm0 0" style="fill:#000" transform="translate(7.408 7.408) scale(.26458)"/>
        </g>
        <path d="M7.996 0c-1.11 0-2 .89-2 2v3.004c0 .633-.48.996-1 .996h-1c-1.11 0-2 .89-2 2v1h12V8c0-1.11-.894-2-2-2h-.976c-.532 0-1.024-.36-1.024-1V2c0-1.11-.894-2-2-2zm0 1.406c.324 0 .594.266.594.594a.593.593 0 1 1-.594-.594zM2 10h12l-.8 5.004c-.2.82-.7.996-1.247.996H10v-3l-1.125 3H7.027L7 13l-1.035 3H5v-1.5L4 16H1l.21-1.047zm0 0" style="fill:#000" transform="translate(7.937 1.058) scale(.26458)"/>
        <path d="M7.996 0c-1.11 0-2 .89-2 2v3.004c0 .633-.48.996-1 .996h-1c-1.11 0-2 .89-2 2v1h12V8c0-1.11-.894-2-2-2h-.976c-.532 0-1.024-.36-1.024-1V2c0-1.11-.894-2-2-2zm0 1.406c.324 0 .594.266.594.594a.593.593 0 1 1-.594-.594zM2 10h12l-.8 5.004c-.2.82-.7.996-1.247.996H10v-3l-1.125 3H7.027L7 13l-1.035 3H5v-1.5L4 16H1l.21-1.047zm0 0" style="fill:#000" transform="translate(1.058 7.408) scale(.26458)"/>
    </g>
</svg>
