<?xml version="1.0" encoding="UTF-8" standalone="no"?>
<svg
   width="32"
   height="32"
   version="1.1"
   id="svg18"
   xmlns:xlink="http://www.w3.org/1999/xlink"
   xmlns="http://www.w3.org/2000/svg"
   xmlns:svg="http://www.w3.org/2000/svg">
  <defs
     id="defs8">
    <linearGradient
       id="a">
      <stop
         offset="0"
         style="stop-color:#99c1f1;stop-opacity:1"
         id="stop2" />
      <stop
         offset="1"
         style="stop-color:#3584e4;stop-opacity:1"
         id="stop4" />
    </linearGradient>
    <linearGradient
       xlink:href="#a"
       id="b"
       x1="16"
       x2="16"
       y1="0"
       y2="32"
       gradientUnits="userSpaceOnUse" />
  </defs>
  <circle
     cx="16"
     cy="16"
     r="16"
     style="fill-opacity:1;fill:url(#b)"
     id="circle10" />
  <g
     id="g762"
     style="display:inline;enable-background:new;fill:#ffffff"
     transform="translate(-152,-164)">
    <path
       id="rect491"
       d="m 163,172 c -1.662,0 -3,1.338 -3,3 v 2 c 0,1.662 1.338,3 3,3 h 10 c 1.662,0 3,-1.338 3,-3 v -2 c 0,-1.662 -1.338,-3 -3,-3 z m 0,2 h 10 c 0.554,0 1,0.446 1,1 v 2 c 0,0.554 -0.446,1 -1,1 h -10 c -0.554,0 -1,-0.446 -1,-1 v -2 c 0,-0.554 0.446,-1 1,-1 z"
       style="fill:#ffffff" />
    <rect
       style="fill:#ffffff"
       id="rect755"
       width="9"
       height="2"
       x="167"
       y="181"
       rx="1"
       ry="1" />
    <rect
       style="fill:#ffffff"
       id="rect757"
       width="2"
       height="7"
       x="167"
       y="181"
       rx="1"
       ry="1" />
  </g>
</svg>
