<svg xmlns="http://www.w3.org/2000/svg" width="56" height="16" viewBox="0 0 14.817 4.233"><g fill="#241f31"><path d="M11.908.265s-.794 0-.794.794v1.323s.011.375.007.529c0 .264-.142.374-.371.561-.166.13-.205.346-.082.45.114.093.308.08.44-.091l.27-.391c.184-.269.26-.496.264-.794V1.06c0-.265.264-.265.264-.265v1.74l.795-.814V1.06c0-.265.264-.265.264-.265v.662l.529-.539c.09-.083.133-.123.264-.123l.001.265L12.7 2.117h1.058s.001.265-.264.265h-1.059l-.529.529c0 .112 0 .531.53.531h1.059s.794 0 .792-.792V.267z"/><g stroke-width="207.87" paint-order="markers stroke fill"><path d="M.793 0A.793.793 0 0 0 0 .794v.529c0 .44.354.794.793.794H3.44c.44 0 .794-.355.794-.794v-.53A.793.793 0 0 0 3.439 0zm0 .53H3.44c.147 0 .265.117.265.264v.529a.264.264 0 0 1-.265.265H.793a.264.264 0 0 1-.264-.265v-.53C.529.648.647.53.793.53zm1.588 2.116v1.323a.264.264 0 1 1-.53 0V2.646a.264.264 0 1 1 .53 0z"/><path d="M2.116 2.381h1.852a.264.264 0 1 1 0 .53H2.116a.264.264 0 1 1 0-.53z"/></g><path d="M8.172.788a.83.83 0 0 0-.597.222l-.17.153-.171-.153a.846.846 0 1 0-1.127 1.266l1.298 1.156 1.297-1.156a.848.848 0 0 0-.53-1.488z"/></g></svg>