<svg xmlns="http://www.w3.org/2000/svg" xmlns:xlink="http://www.w3.org/1999/xlink" xml:space="preserve" id="svg5" width="60" height="44.596" version="1.1" viewBox="0 0 15.875 11.799"><defs id="defs2"><linearGradient id="linearGradient2771"><stop id="stop2769" offset="0" style="stop-color:#241f31;stop-opacity:1"/></linearGradient><linearGradient id="linearGradient860"><stop id="stop856" offset="0" stop-color="#eef4fc" style="stop-color:#c5dcf7;stop-opacity:1"/><stop id="stop858" offset="1" stop-color="#fff"/></linearGradient><linearGradient xlink:href="#linearGradient860" id="linearGradient24" x1="85" x2="85" y1="110.304" y2="86.986" gradientTransform="matrix(-.276 0 0 .276 170.168 359.18)" gradientUnits="userSpaceOnUse"/><filter id="c-2" width="1" height="1" x="0" y="0"><feColorMatrix id="feColorMatrix1957" in="SourceGraphic" type="matrix" values="0 0 0 0 1 0 0 0 0 1 0 0 0 0 1 0 0 0 1 0"/></filter></defs><g id="layer1" transform="translate(-109.008 -377.825)"><linearGradient id="a-3" x1="168.291" x2="243.245" y1="77.782" y2="152.735" gradientTransform="scale(.26458 -.26458) rotate(45 1082.09 2346.396)" gradientUnits="userSpaceOnUse"><stop id="stop2699" offset="0" stop-color="#8ff0a4"/><stop id="stop2701" offset="1" stop-color="#3584e4"/></linearGradient><filter id="b-1" width="1" height="1" x="0" y="0"><feColorMatrix id="feColorMatrix2704" in="SourceGraphic" type="matrix" values="0 0 0 0 1 0 0 0 0 1 0 0 0 0 1 0 0 0 1 0"/></filter><mask id="c-49"><g id="g2709" filter="url(#b)" style="filter:url(#b-1)"><path id="rect2707" fill-opacity=".95" d="M0 0h128v128H0z"/></g></mask><clipPath id="d-2"><path id="rect2712" d="M0 0h192v152H0z"/></clipPath><mask id="e-0"><g id="g2717" filter="url(#b)" style="filter:url(#b-1)"><path id="rect2715" fill-opacity=".75" d="M0 0h128v128H0z"/></g></mask><clipPath id="f-6"><path id="rect2720" d="M0 0h192v152H0z"/></clipPath><mask id="g-8"><g id="g2725" filter="url(#b)" style="filter:url(#b-1)"><path id="rect2723" fill-opacity=".4" d="M0 0h128v128H0z"/></g></mask><clipPath id="h-9"><path id="rect2728" d="M0 0h192v152H0z"/></clipPath><mask id="i-2"><g id="g2733" filter="url(#b)" style="filter:url(#b-1)"><path id="rect2731" fill-opacity=".8" d="M0 0h128v128H0z"/></g></mask><linearGradient id="j-6" x1="16" x2="128" y1="96" y2="96" gradientUnits="userSpaceOnUse"><stop id="stop2736" offset="0" stop-color="#3584e4"/><stop id="stop2738" offset=".429" stop-color="#62a0ea"/><stop id="stop2740" offset=".5" stop-color="#c1d9f7"/><stop id="stop2742" offset=".571" stop-color="#62a0ea"/><stop id="stop2744" offset="1" stop-color="#3584e4"/></linearGradient><clipPath id="k-64"><path id="rect2747" d="M0 0h192v152H0z"/></clipPath><linearGradient id="a-9" x1="100" x2="108" y1="112" y2="112" gradientTransform="translate(481.542 -46.567) scale(.26458)" gradientUnits="userSpaceOnUse"><stop id="stop3091" offset="0" stop-color="#6ce4ab"/><stop id="stop3093" offset=".5" stop-color="#a9fbd0"/><stop id="stop3095" offset="1" stop-color="#6ce4ab"/></linearGradient><linearGradient id="b-7" x1="20" x2="24" y1="108" y2="108" gradientTransform="translate(481.542 -46.567) scale(.26458)" gradientUnits="userSpaceOnUse"><stop id="stop3098" offset="0" stop-color="#09635f"/><stop id="stop3100" offset=".5" stop-color="#1f726e"/><stop id="stop3102" offset="1" stop-color="#09635f"/></linearGradient><linearGradient id="c-76" gradientUnits="userSpaceOnUse"><stop id="stop3105" offset="0" stop-color="#9a9996"/><stop id="stop3107" offset="1" stop-color="#f6f5f4"/></linearGradient><linearGradient xlink:href="#c-76" id="d-73" x1="-231.103" x2="-227.103" y1="131.796" y2="131.796" gradientTransform="scale(-.26458 .26458) rotate(-15 -1920.749 6386.86)"/><linearGradient id="e-65" x1="-221.103" x2="-237.102" y1="92.796" y2="92.796" gradientTransform="scale(-.26458 .26458) rotate(-15 -1920.749 6386.86)" gradientUnits="userSpaceOnUse"><stop id="stop3111" offset="0" stop-color="#02ab90"/><stop id="stop3113" offset="1" stop-color="#09635f"/></linearGradient><linearGradient id="f-63" gradientUnits="userSpaceOnUse"><stop id="stop3116" offset="0" stop-color="#f6f5f4"/><stop id="stop3118" offset="1" stop-color="#9a9996"/></linearGradient><linearGradient xlink:href="#f-63" id="g-94" x1="-221.103" x2="-237.103" y1="92.796" y2="92.796" gradientTransform="matrix(-.25557 -.06848 -.03425 .1278 451.507 -62.095)"/><linearGradient xlink:href="#c-76" id="h-8" x1="-231.103" x2="-227.103" y1="131.796" y2="131.796" gradientTransform="scale(-.26458 .26458) rotate(-15 -1920.749 6386.858)"/><linearGradient id="i-1" x1="88.039" x2="103.494" y1="43.361" y2="47.502" gradientTransform="translate(481.542 -46.567) scale(.26458)" gradientUnits="userSpaceOnUse"><stop id="stop3123" offset="0" stop-color="#02ab90"/><stop id="stop3125" offset=".25" stop-color="#02cbac"/><stop id="stop3127" offset=".5" stop-color="#118d7e"/><stop id="stop3129" offset=".75" stop-color="#247b78"/><stop id="stop3131" offset="1" stop-color="#1f726e"/></linearGradient><linearGradient xlink:href="#f-63" id="j-29" x1="-221.103" x2="-237.103" y1="92.796" y2="92.796" gradientTransform="matrix(-.25557 -.06848 -.03425 .1278 451.506 -62.095)"/><path id="path12" d="M116.888 377.825a4.841 4.841 0 0 0-4.82 4.581 3.623 3.623 0 0 0-3.06 3.587 3.623 3.623 0 0 0 3.632 3.631h9.435a2.803 2.803 0 0 0 2.808-2.808 2.803 2.803 0 0 0-2.808-2.81h-.52a4.841 4.841 0 0 0 .189-1.34 4.841 4.841 0 0 0-4.841-4.84 4.841 4.841 0 0 0-.015 0z" style="font-variation-settings:normal;fill:url(#linearGradient24);fill-opacity:1;stroke-width:.107265"/></g><style id="style10622" type="text/css">.st0{fill:#fff}</style></svg>