<svg xmlns="http://www.w3.org/2000/svg" xmlns:xlink="http://www.w3.org/1999/xlink" width="32" height="32"><defs><linearGradient id="a"><stop offset="0" style="stop-color:#dc8add;stop-opacity:1"/><stop offset="1" style="stop-color:#9141ac;stop-opacity:1"/></linearGradient><linearGradient xlink:href="#a" id="b" x1="16" x2="16" y1="0" y2="32" gradientUnits="userSpaceOnUse"/></defs><circle cx="16" cy="16" r="16" style="fill-opacity:1;fill:url(#b)"/><g fill="#241f31" style="fill:#fff"><path d="M3 0C1.34 0 0 1.34 0 3v2c0 1.66 1.34 3 3 3h10c1.66 0 3-1.34 3-3V3c0-1.66-1.34-3-3-3Zm0 2h10c.555 0 1 .445 1 1v2c0 .555-.445 1-1 1H3c-.555 0-1-.445-1-1V3c0-.555.445-1 1-1Zm5 7h7c.55 0 1 .45 1 1s-.45 1-1 1H8c-.55 0-1-.45-1-1s.45-1 1-1Zm0 0" style="fill:#fff" transform="translate(8 8)"/><path d="M8 9c.55 0 1 .45 1 1v5c0 .55-.45 1-1 1s-1-.45-1-1v-5c0-.55.45-1 1-1Zm0 0" style="fill:#fff" transform="translate(8 8)"/></g></svg>