<svg xmlns="http://www.w3.org/2000/svg" xmlns:xlink="http://www.w3.org/1999/xlink" width="128" height="128"><defs><linearGradient xlink:href="#a" id="i" x1="848.422" x2="848.422" y1="232" y2="228" gradientTransform="matrix(.59375 0 0 1.5 -438.75 9)" gradientUnits="userSpaceOnUse"/><linearGradient id="a"><stop offset="0" style="stop-color:#9a9996;stop-opacity:1"/><stop offset=".5" style="stop-color:#fff;stop-opacity:1"/><stop offset="1" style="stop-color:#c0bfbc;stop-opacity:1"/></linearGradient><linearGradient xlink:href="#a" id="j" x1="853.474" x2="863.58" y1="237.333" y2="237.333" gradientTransform="matrix(.59375 0 0 1.5 -438.75 9)" gradientUnits="userSpaceOnUse"/><linearGradient xlink:href="#a" id="k" x1="823.159" x2="823.159" y1="242.667" y2="246.667" gradientTransform="matrix(.59375 0 0 1.5 -438.75 8)" gradientUnits="userSpaceOnUse"/><linearGradient xlink:href="#a" id="l" x1="782.737" x2="794.527" y1="248.667" y2="248.667" gradientTransform="matrix(.50893 0 0 1.5 -373.357 9)" gradientUnits="userSpaceOnUse"/><linearGradient xlink:href="#b" id="m" x1="483.447" x2="497.447" y1="288.671" y2="288.671" gradientTransform="matrix(.85714 0 0 1.05556 -392.383 102.292)" gradientUnits="userSpaceOnUse"/><linearGradient id="b"><stop offset="0" style="stop-color:#865e3c;stop-opacity:1"/><stop offset=".5" style="stop-color:#b5835a;stop-opacity:1"/><stop offset="1" style="stop-color:#865e3c;stop-opacity:1"/></linearGradient><linearGradient xlink:href="#c" id="n" x1="102.667" x2="102.667" y1="47" y2="65" gradientTransform="matrix(1.5 0 0 1.55556 -162 266.889)" gradientUnits="userSpaceOnUse"/><linearGradient id="c"><stop offset="0" style="stop-color:#1c71d8;stop-opacity:1"/><stop offset=".5" style="stop-color:#3584e4;stop-opacity:1"/><stop offset="1" style="stop-color:#1a5fb4;stop-opacity:1"/></linearGradient><linearGradient xlink:href="#d" id="o" x1="82" x2="82" y1="47" y2="65" gradientTransform="matrix(1.5 0 0 1.55556 -104 266.889)" gradientUnits="userSpaceOnUse"/><linearGradient id="d"><stop offset="0" style="stop-color:#2ec27e;stop-opacity:1"/><stop offset=".5" style="stop-color:#33d17a;stop-opacity:1"/><stop offset="1" style="stop-color:#26a269;stop-opacity:1"/></linearGradient><linearGradient xlink:href="#e" id="p" x1="88" x2="88" y1="47" y2="65" gradientTransform="matrix(1.5 0 0 1.55556 -68 266.889)" gradientUnits="userSpaceOnUse"/><linearGradient id="e"><stop offset="0" style="stop-color:#c01c28;stop-opacity:1"/><stop offset=".5" style="stop-color:#e01b24;stop-opacity:1"/><stop offset="1" style="stop-color:#a51d2d;stop-opacity:1"/></linearGradient><linearGradient xlink:href="#f" id="q" x1="82" x2="82" y1="47" y2="65" gradientTransform="matrix(1.5 0 0 1.55556 -86 266.889)" gradientUnits="userSpaceOnUse"/><linearGradient id="f"><stop offset="0" style="stop-color:#f5c211;stop-opacity:1"/><stop offset=".5" style="stop-color:#f6d32d;stop-opacity:1"/><stop offset="1" style="stop-color:#e5a50a;stop-opacity:1"/></linearGradient><clipPath id="g" clipPathUnits="userSpaceOnUse"><rect width="112" height="88" x="8" y="200" rx="8" ry="8" style="fill:#9141ac"/></clipPath><clipPath id="h" clipPathUnits="userSpaceOnUse"><rect width="112" height="88" x="107.067" y="297.742" rx="8" ry="8" style="fill:#fafafa" transform="rotate(45)"/></clipPath></defs><g style="display:inline;enable-background:new" transform="translate(0 -180)"><rect width="112" height="88" x="8" y="202" rx="8" ry="8" style="fill:#deddda"/><rect width="112" height="88" x="8" y="200" rx="8" ry="8" style="fill:#fafafa"/><path d="M8 200h112v16H8z" clip-path="url(#g)" style="fill:#ebebeb"/><circle cx="112" cy="208" r="5" style="fill:#d8d8d8"/><path fill="#2e3436" d="M110 206h.516a.522.522 0 0 1 .344.156l1.14 1.14 1.157-1.14c.133-.115.223-.152.344-.156h.5v.5c0 .143-.018.275-.125.375l-1.14 1.14 1.124 1.126c.094.093.14.226.14.359v.5h-.5a.508.508 0 0 1-.359-.14l-1.14-1.141-1.14 1.14a.508.508 0 0 1-.36.141h-.5v-.5c0-.133.047-.266.14-.36l1.141-1.124-1.14-1.141a.452.452 0 0 1-.141-.375zm0 0" style="fill:#2b2b2b"/></g><g clip-path="url(#h)" style="display:inline;opacity:.6;enable-background:new" transform="rotate(-45 -384.798 -19.287)"><path d="M-168 260h18v96h-18z" style="fill:#3584e4"/><path d="M-150 260h18v96h-18z" style="fill:#33d17a"/><path d="M-132 260h18v96h-18z" style="fill:#f6d32d"/><path d="M-114 260h18v96h-18z" style="fill:#e01b24"/></g><g style="display:inline;enable-background:new"><g transform="rotate(-45 -302.384 172.85)"><path d="M59 351c-1.662 0-3 1.338-3 3s1.338 3 3 3h9l5.123-5.123A2.99 2.99 0 0 0 71 351Z" style="fill:url(#i)"/><path d="M73.123 351.877 68 357v15l5.123 5.123A2.99 2.99 0 0 0 74 375v-21a2.99 2.99 0 0 0-.877-2.123z" style="fill:url(#j)"/><path d="M28 372a2.99 2.99 0 0 0-2.123.877L31 378h40a2.99 2.99 0 0 0 2.123-.877L68 372Z" style="fill:url(#k)"/><path d="M25.877 372.877A2.99 2.99 0 0 0 25 375v14c0 1.662 1.338 3 3 3s3-1.338 3-3v-11z" style="fill:url(#l)"/><rect width="12" height="38" x="22" y="388" rx="6" ry="6" style="fill:url(#m)"/><rect width="8" height="2" x="24" y="410" rx="1" ry="1" style="fill:#865e3c"/><rect width="8" height="2" x="24" y="414" rx="1" ry="1" style="fill:#865e3c"/><rect width="8" height="2" x="24" y="418" rx="1" ry="1" style="fill:#865e3c"/></g><path d="M-2 340c-3.324 0-6 2.676-6 6v16c0 3.324 2.676 6 6 6h12v-28z" style="fill:url(#n)" transform="rotate(-45 -302.384 172.85)"/><path d="M10 340h18v28H10z" style="fill:url(#o)" transform="rotate(-45 -302.384 172.85)"/><path d="M46 368h12c3.324 0 6-2.676 6-6v-16c0-3.324-2.676-6-6-6H46Z" style="fill:url(#p)" transform="rotate(-45 -302.384 172.85)"/><path d="M28 340h18v28H28z" style="fill:url(#q)" transform="rotate(-45 -302.384 172.85)"/></g></svg>