<svg xmlns="http://www.w3.org/2000/svg" width="32" height="32"><defs><linearGradient id="a" x1="0" x2="0" y1="0" y2="256" gradientTransform="scale(.125)" gradientUnits="userSpaceOnUse"><stop offset="0%" style="stop-color:#3584e4;stop-opacity:1"/><stop offset="100%" style="stop-color:#8ff0a4;stop-opacity:1"/></linearGradient></defs><rect width="32" height="32" fill="url(#a)" rx="16" ry="16"/><g fill="#fff"><path d="M3 0C1.34 0 0 1.34 0 3v2c0 1.66 1.34 3 3 3h10c1.66 0 3-1.34 3-3V3c0-1.66-1.34-3-3-3Zm0 2h10c.555 0 1 .445 1 1v2c0 .555-.445 1-1 1H3c-.555 0-1-.445-1-1V3c0-.555.445-1 1-1Zm6 8v5c0 .554-.446 1-1 1s-1-.446-1-1v-5c0-.554.446-1 1-1s1 .446 1 1Z" style="fill:#fff" transform="translate(8 8)"/><path d="M8 9h7c.554 0 1 .446 1 1s-.446 1-1 1H8c-.554 0-1-.446-1-1s.446-1 1-1Z" style="fill:#fff" transform="translate(8 8)"/></g></svg>