<svg xmlns="http://www.w3.org/2000/svg" xmlns:xlink="http://www.w3.org/1999/xlink" width="128" height="128"><defs><linearGradient xlink:href="#a" id="l" x1="46" x2="46" y1="232" y2="228" gradientTransform="matrix(.59375 0 0 1.5 -561.197 -108.329)" gradientUnits="userSpaceOnUse"/><linearGradient id="a"><stop offset="0" style="stop-color:#9a9996;stop-opacity:1"/><stop offset=".5" style="stop-color:#fff;stop-opacity:1"/><stop offset="1" style="stop-color:#c0bfbc;stop-opacity:1"/></linearGradient><linearGradient xlink:href="#a" id="m" x1="46" x2="46" y1="232" y2="228" gradientTransform="matrix(1.1875 0 0 1.5 459.947 -602.671)" gradientUnits="userSpaceOnUse"/><linearGradient xlink:href="#a" id="n" x1="46" x2="46" y1="232" y2="228" gradientTransform="matrix(0 -.8125 -1.5 0 878.447 292.171)" gradientUnits="userSpaceOnUse"/><linearGradient xlink:href="#a" id="o" x1="46" x2="46" y1="232" y2="228" gradientTransform="matrix(0 -.48469 -1.5 0 835.446 285.895)" gradientUnits="userSpaceOnUse"/><linearGradient xlink:href="#b" id="p" x1="82" x2="82" y1="47" y2="65" gradientTransform="matrix(1.5 0 0 1.55556 340.447 149.56)" gradientUnits="userSpaceOnUse"/><linearGradient id="b"><stop offset="0" style="stop-color:#1c71d8;stop-opacity:1"/><stop offset=".5" style="stop-color:#3584e4;stop-opacity:1"/><stop offset="1" style="stop-color:#1a5fb4;stop-opacity:1"/></linearGradient><linearGradient xlink:href="#c" id="q" x1="82" x2="82" y1="47" y2="65" gradientTransform="matrix(1.5 0 0 1.55556 358.447 149.56)" gradientUnits="userSpaceOnUse"/><linearGradient id="c"><stop offset="0" style="stop-color:#2ec27e;stop-opacity:1"/><stop offset=".5" style="stop-color:#33d17a;stop-opacity:1"/><stop offset="1" style="stop-color:#26a269;stop-opacity:1"/></linearGradient><linearGradient xlink:href="#d" id="r" x1="82" x2="82" y1="47" y2="65" gradientTransform="matrix(1.5 0 0 1.55556 394.447 149.56)" gradientUnits="userSpaceOnUse"/><linearGradient id="d"><stop offset="0" style="stop-color:#c01c28;stop-opacity:1"/><stop offset=".5" style="stop-color:#e01b24;stop-opacity:1"/><stop offset="1" style="stop-color:#a51d2d;stop-opacity:1"/></linearGradient><linearGradient xlink:href="#e" id="s" x1="82" x2="82" y1="47" y2="65" gradientTransform="matrix(1.5 0 0 1.55556 376.447 149.56)" gradientUnits="userSpaceOnUse"/><linearGradient id="e"><stop offset="0" style="stop-color:#f5c211;stop-opacity:1"/><stop offset=".5" style="stop-color:#f6d32d;stop-opacity:1"/><stop offset="1" style="stop-color:#e5a50a;stop-opacity:1"/></linearGradient><linearGradient xlink:href="#f" id="t" x1="483.447" x2="497.447" y1="288.671" y2="288.671" gradientTransform="matrix(.85714 0 0 1.05556 70.064 -15.037)" gradientUnits="userSpaceOnUse"/><linearGradient id="f"><stop offset="0" style="stop-color:#865e3c;stop-opacity:1"/><stop offset=".5" style="stop-color:#b5835a;stop-opacity:1"/><stop offset="1" style="stop-color:#865e3c;stop-opacity:1"/></linearGradient><clipPath id="g" clipPathUnits="userSpaceOnUse"><rect width="112" height="88" x="-438.458" y="195.077" rx="8" ry="8" style="display:inline;opacity:1;vector-effect:none;fill:#deddda;fill-opacity:1;stroke:none;stroke-width:.25;stroke-linecap:butt;stroke-linejoin:miter;stroke-miterlimit:4;stroke-dasharray:none;stroke-dashoffset:0;stroke-opacity:1;marker:none;marker-start:none;marker-mid:none;marker-end:none;paint-order:normal;enable-background:new"/></clipPath><clipPath id="h" clipPathUnits="userSpaceOnUse"><rect width="86.444" height="67.92" x="157.86" y="306.049" rx="6.175" ry="6.175" style="display:inline;opacity:1;fill:#fafafa;fill-opacity:1;stroke:none;stroke-width:.192955;stroke-linecap:butt;stroke-linejoin:miter;stroke-miterlimit:4;stroke-dasharray:none;stroke-dashoffset:0;stroke-opacity:1;marker:none;marker-start:none;marker-mid:none;marker-end:none;paint-order:normal;enable-background:new" transform="matrix(.91616 .40082 -.91616 .40082 0 0)"/></clipPath><clipPath id="i" clipPathUnits="userSpaceOnUse"><rect width="86.444" height="67.92" x="157.86" y="306.049" rx="6.175" ry="6.175" style="display:inline;opacity:1;fill:#fafafa;fill-opacity:1;stroke:none;stroke-width:.192955;stroke-linecap:butt;stroke-linejoin:miter;stroke-miterlimit:4;stroke-dasharray:none;stroke-dashoffset:0;stroke-opacity:1;marker:none;marker-start:none;marker-mid:none;marker-end:none;paint-order:normal;enable-background:new" transform="matrix(.91616 .40082 -.91616 .40082 0 0)"/></clipPath><clipPath id="j" clipPathUnits="userSpaceOnUse"><rect width="86.444" height="67.92" x="157.86" y="306.049" rx="6.175" ry="6.175" style="display:inline;opacity:1;fill:#fafafa;fill-opacity:1;stroke:none;stroke-width:.192955;stroke-linecap:butt;stroke-linejoin:miter;stroke-miterlimit:4;stroke-dasharray:none;stroke-dashoffset:0;stroke-opacity:1;marker:none;marker-start:none;marker-mid:none;marker-end:none;paint-order:normal;enable-background:new" transform="matrix(.91616 .40082 -.91616 .40082 0 0)"/></clipPath><clipPath id="k" clipPathUnits="userSpaceOnUse"><rect width="86.444" height="67.92" x="157.86" y="306.049" rx="6.175" ry="6.175" style="display:inline;opacity:1;fill:#fafafa;fill-opacity:1;stroke:none;stroke-width:.192955;stroke-linecap:butt;stroke-linejoin:miter;stroke-miterlimit:4;stroke-dasharray:none;stroke-dashoffset:0;stroke-opacity:1;marker:none;marker-start:none;marker-mid:none;marker-end:none;paint-order:normal;enable-background:new" transform="matrix(.91616 .40082 -.91616 .40082 0 0)"/></clipPath></defs><g style="display:inline;enable-background:new" transform="translate(446.458 -181.077)"><rect width="112" height="76" x="-438.458" y="209.077" rx="8" ry="8" style="display:inline;opacity:1;vector-effect:none;fill:#d5d3cf;fill-opacity:1;stroke:none;stroke-width:.25;stroke-linecap:butt;stroke-linejoin:miter;stroke-miterlimit:4;stroke-dasharray:none;stroke-dashoffset:0;stroke-opacity:1;marker:none;marker-start:none;marker-mid:none;marker-end:none;paint-order:normal;enable-background:new"/><rect width="112" height="88" x="-438.458" y="195.077" rx="8" ry="8" style="display:inline;opacity:1;fill:#fafafa;fill-opacity:1;stroke:none;stroke-width:.25;stroke-linecap:butt;stroke-linejoin:miter;stroke-miterlimit:4;stroke-dasharray:none;stroke-dashoffset:0;stroke-opacity:1;marker:none;marker-start:none;marker-mid:none;marker-end:none;paint-order:normal;enable-background:new"/><rect width="112" height="16" x="-438.458" y="195.077" clip-path="url(#g)" rx="0" ry="0" style="display:inline;opacity:1;fill:#ebebeb;fill-opacity:1;stroke:none;stroke-width:174.54;paint-order:markers stroke fill;enable-background:new"/><circle cx="-334.458" cy="203.077" r="5" style="display:inline;fill:#d8d8d8;fill-opacity:1;stroke:#deddda;stroke-width:0;stroke-linecap:round;stroke-linejoin:round;stroke-dasharray:none;stroke-dashoffset:34.5;paint-order:markers stroke fill;enable-background:new"/><path fill="#222" d="M-336.955 200.577h.428a.425.425 0 0 1 .287.13l1.783 1.784 1.796-1.784c.111-.096.186-.127.287-.13h.416v.417c0 .119-.015.23-.104.312l-1.783 1.784 1.77 1.77a.423.423 0 0 1 .117.3v.417h-.416a.421.421 0 0 1-.3-.117l-1.783-1.784-1.783 1.784a.423.423 0 0 1-.3.117h-.416v-.417c0-.11.04-.221.117-.3l1.784-1.77-1.784-1.784a.377.377 0 0 1-.117-.312zm0 0" style="display:inline;opacity:1;fill:#444;fill-opacity:1;stroke-width:.416608;enable-background:new"/></g><g style="display:inline;opacity:.7;enable-background:new"><path d="M-168.936 174.835h18v42h-18z" clip-path="url(#h)" style="display:inline;fill:#3584e4;stroke-width:16.9706;stroke-linecap:round;stroke-dashoffset:26.4;enable-background:new" transform="rotate(-45 -560.02 45.968) scale(.99999 2.28571)"/><path d="M-150.936 174.835h18v42h-18z" clip-path="url(#i)" style="display:inline;fill:#33d17a;stroke-width:16.9706;stroke-linecap:round;stroke-dashoffset:26.4;enable-background:new" transform="rotate(-45 -560.02 45.968) scale(.99999 2.28571)"/><path d="M-114.936 174.835h18v42h-18z" clip-path="url(#j)" style="display:inline;fill:#e01b24;stroke-width:16.9706;stroke-linecap:round;stroke-dashoffset:26.4;enable-background:new" transform="rotate(-45 -560.02 45.968) scale(.99999 2.28571)"/><path d="M-132.936 174.835h18v42h-18z" clip-path="url(#k)" style="display:inline;fill:#f6d32d;stroke-width:16.9706;stroke-linecap:round;stroke-dashoffset:26.4;enable-background:new" transform="rotate(-45 -560.02 45.968) scale(.99999 2.28571)"/></g><g style="display:inline;enable-background:new"><g transform="rotate(-45 63.225 669.408)"><rect width="18" height="6" x="-536.447" y="233.671" rx="3" ry="3" style="display:inline;fill:url(#l);fill-opacity:1;stroke:none;stroke-width:6.27498;stroke-linecap:round;stroke-dashoffset:26.4;stroke-opacity:1;enable-background:new" transform="scale(-1 1)"/><rect width="49" height="6" x="487.447" y="-260.671" rx="3" ry="3" style="display:inline;fill:url(#m);fill-opacity:1;stroke:none;stroke-width:8.87416;stroke-linecap:round;stroke-dashoffset:26.4;stroke-opacity:1;enable-background:new" transform="scale(1 -1)"/><path d="m535.57 234.549-5.123 5.123v15l5.123 5.123a2.99 2.99 0 0 0 .877-2.123v-21c0-.83-.335-1.581-.877-2.123z" style="display:inline;fill:url(#n);fill-opacity:1;stroke:none;stroke-width:7.34044;stroke-linecap:round;stroke-dashoffset:26.4;stroke-opacity:1;enable-background:new"/><path d="m493.447 260.672-5.123-5.123a2.993 2.993 0 0 0-.877 2.123v14c0 1.662 1.338 3 3 3s3-1.338 3-3z" style="display:inline;fill:url(#o);fill-opacity:1;stroke:none;stroke-width:5.66947;stroke-linecap:round;stroke-dashoffset:26.4;stroke-opacity:1;enable-background:new"/></g><path d="M460.447 222.671h12v28h-12c-3.324 0-6-2.676-6-6v-16c0-3.324 2.676-6 6-6z" style="display:inline;fill:url(#p);stroke-width:16.9706;stroke-linecap:round;stroke-dashoffset:26.4;enable-background:new" transform="rotate(-45 63.225 669.408)"/><path d="M472.447 222.671h18v28h-18z" style="display:inline;fill:url(#q);stroke-width:16.9706;stroke-linecap:round;stroke-dashoffset:26.4;enable-background:new" transform="rotate(-45 63.225 669.408)"/><path d="M514.447 222.671h6c3.324 0 6 2.676 6 6v16c0 3.324-2.676 6-6 6h-12v-28z" style="display:inline;fill:url(#r);stroke-width:16.9706;stroke-linecap:round;stroke-dashoffset:26.4;enable-background:new" transform="rotate(-45 63.225 669.408)"/><path d="M490.447 222.671h18v28h-18z" style="display:inline;fill:url(#s);stroke-width:16.9706;stroke-linecap:round;stroke-dashoffset:26.4;enable-background:new" transform="rotate(-45 63.225 669.408)"/><g transform="rotate(-45 63.225 669.408)"><rect width="12" height="38" x="484.447" y="270.671" rx="6" ry="6" style="fill:url(#t);fill-opacity:1;stroke-width:.494388;stroke-linecap:round;stroke-linejoin:round;stroke-dasharray:none"/><rect width="8" height="2" x="486.447" y="292.671" rx="1" ry="1" style="display:inline;opacity:1;fill:#865e3c;fill-opacity:1;stroke-width:12;stroke-linecap:round;stroke-dashoffset:26.4;enable-background:new"/><rect width="8" height="2" x="486.447" y="296.671" rx="1" ry="1" style="display:inline;opacity:1;fill:#865e3c;fill-opacity:1;stroke-width:12;stroke-linecap:round;stroke-dashoffset:26.4;enable-background:new"/><rect width="8" height="2" x="486.447" y="300.671" rx="1" ry="1" style="display:inline;opacity:1;fill:#865e3c;fill-opacity:1;stroke-width:12;stroke-linecap:round;stroke-dashoffset:26.4;enable-background:new"/></g></g></svg>